General
Complete name : The.Message.2009.DVDRip.XviD.AC3-ViSiON.avi
Format : AVI
Format/Info : Audio Video Interleave
File size : 1.45 GiB
Duration : 1h 53mn
Overall bit rate : 1 831 Kbps
Writing application : VirtualDubMod 1.5.10.2 (build 2542/release)
Writing library : VirtualDubMod build 2542/release

Video
Format : MPEG-4 Visual
Format profile : Streaming Video@L1
Format settings, BVOP : Yes
Format settings, QPel : No
Format settings, GMC : No warppoints
Format settings, Matrix : Default
Muxing mode : Packet Bitstream
Codec ID : XVID
Codec ID/Hint : XviD
Duration : 1h 53mn
Bit rate : 1 437 Kbps
Width : 720 pixels
Height : 304 pixels
Display aspect ratio : 2.35
Frame rate : 25.000 fps
Resolution : 24 bits
Colorimetry : 4:2:0
Scan type : Progressive
Bits/(Pixel*Frame) : 0.263
Stream size : 1.14 GiB (78%)
Writing library : XviD 50

Audio
Format : AC-3
Format/Info : Audio Coding 3
Codec ID : 2000
Duration : 1h 53mn
Bit rate mode : Constant
Bit rate : 384 Kbps
Channel(s) : 6 channels
Channel positions : Front: L C R, Rear: L R, LFE
Sampling rate : 48.0 KHz
Stream size : 312 MiB (21%)
Alignment : Split accross interleaves
Interleave, duration : 40 ms (1.00 video frame)
Interleave, preload duration : 500 ms


Subtitles included: English, Dutch, Chinese
 
http://www.imdb.com/title/tt1434423/



DON'T FORGET TO SEED !!!


HIT AND RUN IS NOT AN OPTION BECAUSE THIS IS ... A TORRENT !!!